# xmcd
#
# Track frame offsets: 
#        150
#        12891
#        26131
#        48000
#        61179
#        72626
#        83705
#        96923
#        110408
#        120865
#        132840
#        143726
#        154568
#        164162
#        177304
#        190316
#        203800
#        217896
#        230190
#        249335
#        261903
#        275231
#        290518
#
# Disc length: 4081 seconds
#
# Revision: 1
# Processed by: cddbd v1.5.2PL0 Copyright (c) Steve Scherf et al.
# Submitted via: ExactAudioCopy v1.0b1
#
DISCID=520fef17
DTITLE=Little Walter - The Complete Chess Masters 1950-1967 [CD5]
DYEAR=2009
DGENRE=Blues
TTITLE0=Back Track
TTITLE1=One Of These Mornings
TTITLE2=Blue And Lonesome (alt)
TTITLE3=Blue And Lonesome
TTITLE4=Me And Piney Brown
TTITLE5=Break It Up
TTITLE6=Going Down Slow
TTITLE7=You're Sweet
TTITLE8=I Don't Play
TTITLE9=As Long As I Have You
TTITLE10=You Don't Know
TTITLE11=Just Your Fool
TTITLE12=Up The Line
TTITLE13=I'm A Business Man
TTITLE14=Dead Presidents
TTITLE15=Southern Feeling
TTITLE16=Back In The Alley
TTITLE17=I Feel So Bad (take 1)
TTITLE18=I Feel So Bad (take 2)
TTITLE19=Chicken Shack
TTITLE20=Feel So Bad
TTITLE21=Make It Alright
TTITLE22=Juke
EXTD=
EXTT0=
EXTT1=
EXTT2=
EXTT3=
EXTT4=
EXTT5=
EXTT6=
EXTT7=
EXTT8=
EXTT9=
EXTT10=
EXTT11=
EXTT12=
EXTT13=
EXTT14=
EXTT15=
EXTT16=
EXTT17=
EXTT18=
EXTT19=
EXTT20=
EXTT21=
EXTT22=
PLAYORDER=
